<?xml version="1.0" standalone="no"?>
<!DOCTYPE svg PUBLIC "-//W3C//DTD SVG 20010904//EN"
 "http://www.w3.org/TR/2001/REC-SVG-20010904/DTD/svg10.dtd">
<svg version="1.0" xmlns="http://www.w3.org/2000/svg"
 width="700.000000pt" height="700.000000pt" viewBox="0 0 700.000000 700.000000"
 preserveAspectRatio="xMidYMid meet">
<metadata>
Created by potrace 1.14, written by Peter Selinger 2001-2017
</metadata>
<g transform="translate(0.000000,700.000000) scale(0.100000,-0.100000)"
fill="#000000" stroke="none">
<path d="M6430 6950 c-110 -117 -373 -280 -728 -452 -111 -54 -205 -98 -208
-98 -3 0 -26 -9 -52 -21 -26 -11 -63 -27 -82 -35 -19 -9 -48 -21 -65 -29 -16
-7 -61 -26 -100 -41 -38 -15 -83 -33 -100 -40 -46 -19 -294 -110 -460 -169
-198 -70 -217 -78 -380 -156 -421 -201 -900 -593 -1302 -1065 -210 -247 -487
-628 -640 -879 -6 -11 -45 -74 -85 -140 -40 -66 -78 -129 -84 -140 -5 -11 -39
-72 -74 -135 -83 -150 -490 -965 -1127 -2260 -445 -904 -422 -850 -428 -978
-7 -132 44 -238 137 -289 23 -12 54 -17 103 -17 85 0 148 29 223 101 73 71 88
93 182 268 24 44 57 107 75 140 18 33 60 112 93 175 95 184 157 301 198 376
45 83 130 233 144 254 5 8 23 40 41 70 67 115 215 327 293 420 37 43 213 217
252 248 53 42 198 126 265 153 36 15 104 36 150 48 79 19 129 25 304 36 385
24 808 172 1167 409 284 186 531 425 609 590 42 88 19 116 -65 81 -20 -8 -69
-23 -109 -31 -99 -23 -403 -27 -512 -8 -88 15 -155 41 -155 59 0 23 82 48 200
60 30 3 66 8 80 10 14 2 45 7 70 10 73 10 298 71 401 108 417 151 823 450 954
701 40 77 44 115 15 141 -17 15 -24 16 -46 6 -99 -45 -353 -71 -489 -50 -114
17 -317 81 -303 94 2 2 23 6 48 10 82 11 104 16 190 36 206 48 429 143 594
254 111 75 115 78 218 174 179 168 337 406 441 666 68 170 136 417 161 590 4
23 8 50 10 60 2 11 7 52 11 90 4 39 9 88 12 110 7 54 12 452 6 493 -3 17 -8
31 -12 31 -3 -1 -22 -18 -41 -39z"/>
</g>
</svg>
